<svg width="1088" height="373" viewBox="0 0 1088 373" fill="none" xmlns="http://www.w3.org/2000/svg">
<g filter="url(#filter0_i_1_20)">
<circle cx="181" cy="247" r="109" fill="url(#paint0_linear_1_20)" fill-opacity="0.4"/>
</g>
<g filter="url(#filter1_b_1_20)">
<circle cx="181" cy="192" r="181" fill="white" fill-opacity="0.3"/>
<circle cx="181" cy="192" r="180.5" stroke="#5FE07C" stroke-opacity="0.2"/>
</g>
<g filter="url(#filter2_b_1_20)">
<circle cx="181" cy="192" r="151" fill="white" fill-opacity="0.3"/>
<circle cx="181" cy="192" r="150.5" stroke="#5FE07C" stroke-opacity="0.2"/>
</g>
<g filter="url(#filter3_i_1_20)">
<circle cx="315.439" cy="67.1059" r="12.2667" fill="url(#paint1_linear_1_20)"/>
</g>
<g filter="url(#filter4_i_1_20)">
<circle cx="353.682" cy="259.765" r="17.3176" fill="url(#paint2_linear_1_20)"/>
</g>
<g filter="url(#filter5_i_1_20)">
<circle cx="43.4079" cy="12.9882" r="12.9882" fill="url(#paint3_linear_1_20)"/>
</g>
<g filter="url(#filter6_i_1_20)">
<circle cx="49.1804" cy="135.655" r="7.21569" fill="url(#paint4_linear_1_20)"/>
</g>
<g filter="url(#filter7_i_1_20)">
<circle cx="14.5451" cy="242.447" r="11.5451" fill="url(#paint5_linear_1_20)"/>
</g>
<g filter="url(#filter8_i_1_20)">
<path fill-rule="evenodd" clip-rule="evenodd" d="M288.54 120.466C289.042 120.968 289.373 121.617 289.485 122.318C290.871 138.706 289.458 155.21 285.306 171.124L238.32 123.633C254.092 119.524 270.449 118.133 286.688 119.521C287.389 119.633 288.038 119.963 288.54 120.466ZM168.719 169.101L123.217 241.837C122.81 242.484 122.635 243.25 122.721 244.01C122.807 244.769 123.148 245.477 123.689 246.017L162.989 285.317C163.301 285.636 163.674 285.889 164.084 286.063C164.495 286.236 164.936 286.327 165.382 286.329C166.018 286.332 166.641 286.144 167.169 285.789L240.141 240.085C260.711 224.683 275.836 203.123 283.317 178.539L230.905 125.689C206.076 133.154 184.285 148.366 168.719 169.101Z" fill="url(#paint6_linear_1_20)"/>
</g>
<g filter="url(#filter9_bdiii_1_20)">
<path d="M-nan -nanL129.824 273.992L112.971 290.845C112.655 291.158 112.405 291.531 112.233 291.942C112.062 292.353 111.974 292.793 111.974 293.238C111.974 293.683 112.062 294.124 112.233 294.534C112.405 294.945 112.655 295.318 112.971 295.631C113.286 295.944 113.66 296.191 114.07 296.358C114.481 296.526 114.921 296.611 115.364 296.609C116.249 296.605 117.096 296.254 117.724 295.631L134.576 278.778C134.892 278.465 135.143 278.092 135.314 277.682C135.485 277.271 135.573 276.83 135.573 276.385C135.573 275.94 135.485 275.5 135.314 275.089C135.143 274.678 134.892 274.306 134.576 273.992C133.945 273.365 133.091 273.012 132.2 273.012C131.31 273.012 130.455 273.365 129.824 273.992L-nan -nanL-nan -nanZ" fill="url(#paint7_linear_1_20)" fill-opacity="0.21"/>
<path d="M-nan -nanL129.824 273.992L112.971 290.845C112.655 291.158 112.405 291.531 112.233 291.942C112.062 292.353 111.974 292.793 111.974 293.238C111.974 293.683 112.062 294.124 112.233 294.534C112.405 294.945 112.655 295.318 112.971 295.631C113.286 295.944 113.66 296.191 114.07 296.358C114.481 296.526 114.921 296.611 115.364 296.609C116.249 296.605 117.096 296.254 117.724 295.631L134.576 278.778C134.892 278.465 135.143 278.092 135.314 277.682C135.485 277.271 135.573 276.83 135.573 276.385C135.573 275.94 135.485 275.5 135.314 275.089C135.143 274.678 134.892 274.306 134.576 273.992C133.945 273.365 133.091 273.012 132.2 273.012C131.31 273.012 130.455 273.365 129.824 273.992L-nan -nanL-nan -nanZ" fill="#D7FFC2" fill-opacity="0.1"/>
</g>
<g filter="url(#filter10_bdii_1_20)">
<path fill-rule="evenodd" clip-rule="evenodd" d="M128.633 243.4C128.659 243.374 128.663 243.333 128.643 243.303C128.624 243.274 128.626 243.236 128.649 243.21C128.944 242.877 129.302 242.606 129.703 242.412C130.121 242.21 130.576 242.096 131.041 242.078C131.505 242.061 131.968 242.139 132.4 242.308C132.833 242.478 133.226 242.735 133.554 243.063C133.883 243.392 134.14 243.784 134.309 244.217C134.479 244.65 134.557 245.112 134.539 245.577C134.521 246.041 134.407 246.496 134.205 246.914C134.003 247.333 133.716 247.704 133.363 248.007L125.847 255.523C125.25 256.187 124.413 256.587 123.521 256.635C122.855 256.632 122.204 256.432 121.651 256.059C121.098 255.687 120.669 255.158 120.416 254.542C120.163 253.925 120.1 253.247 120.232 252.593C120.365 251.94 120.689 251.341 121.162 250.872L128.633 243.4ZM92.5459 310.631L115.735 287.34C116.37 286.692 117.236 286.323 118.143 286.314C119.05 286.304 119.924 286.655 120.572 287.29C121.22 287.925 121.589 288.791 121.599 289.698C121.608 290.605 121.257 291.479 120.622 292.127L97.2984 315.417C96.6637 316.047 95.8047 316.4 94.9102 316.396C94.0158 316.393 93.1593 316.035 92.5291 315.4C91.8989 314.766 91.5466 313.906 91.5497 313.012C91.5529 312.118 91.9112 311.261 92.5459 310.631ZM142.335 262.997C142.356 263.027 142.352 263.068 142.326 263.094L134.854 270.565C134.381 271.035 134.057 271.634 133.924 272.287C133.792 272.941 133.856 273.619 134.108 274.235C134.361 274.852 134.79 275.381 135.343 275.753C135.896 276.126 136.547 276.326 137.213 276.329C138.105 276.281 138.942 275.881 139.539 275.217L147.055 267.7C147.408 267.398 147.695 267.026 147.897 266.608C148.099 266.19 148.213 265.735 148.231 265.271C148.249 264.806 148.171 264.343 148.001 263.911C147.832 263.478 147.575 263.086 147.246 262.757C146.918 262.429 146.525 262.172 146.092 262.002C145.66 261.833 145.197 261.754 144.733 261.772C144.269 261.79 143.813 261.904 143.395 262.106C142.994 262.3 142.636 262.571 142.341 262.904C142.318 262.93 142.316 262.968 142.335 262.997ZM160.183 274.947C160.208 274.922 160.247 274.918 160.277 274.937C160.306 274.957 160.345 274.953 160.37 274.929C161 274.325 161.841 273.988 162.715 273.992C163.609 273.995 164.466 274.353 165.096 274.988C165.726 275.622 166.079 276.481 166.075 277.376C166.072 278.27 165.714 279.127 165.079 279.757L157.563 287.273C156.935 287.896 156.088 288.247 155.204 288.251C154.76 288.253 154.32 288.168 153.91 288.001C153.499 287.833 153.125 287.586 152.81 287.273C152.495 286.96 152.244 286.587 152.073 286.176C151.902 285.766 151.813 285.325 151.813 284.88C151.813 284.435 151.902 283.995 152.073 283.584C152.244 283.173 152.495 282.8 152.81 282.487L160.183 274.947ZM138.149 297.014L124.296 310.833C123.98 311.147 123.729 311.519 123.558 311.93C123.387 312.341 123.299 312.781 123.299 313.226C123.299 313.671 123.387 314.112 123.558 314.523C123.729 314.933 123.98 315.306 124.296 315.619C124.611 315.932 124.985 316.179 125.395 316.347C125.806 316.514 126.246 316.599 126.689 316.597C127.133 316.599 127.572 316.514 127.983 316.347C128.394 316.179 128.767 315.932 129.082 315.619L142.901 301.767C143.454 301.122 143.742 300.292 143.709 299.444C143.677 298.596 143.325 297.791 142.725 297.191C142.124 296.591 141.32 296.239 140.471 296.206C139.623 296.173 138.794 296.462 138.149 297.014ZM88.1803 282.34L102.033 268.521C102.678 267.968 103.507 267.68 104.356 267.713C105.204 267.745 106.009 268.097 106.609 268.697C107.209 269.298 107.561 270.102 107.594 270.951C107.626 271.799 107.338 272.628 106.786 273.273L92.9665 287.126C92.6516 287.438 92.2781 287.685 91.8674 287.853C91.4567 288.021 91.017 288.106 90.5734 288.103C90.1298 288.106 89.6901 288.021 89.2795 287.853C88.8688 287.685 88.4953 287.438 88.1803 287.126C87.8644 286.813 87.6137 286.44 87.4426 286.029C87.2715 285.618 87.1833 285.178 87.1833 284.733C87.1833 284.288 87.2715 283.847 87.4426 283.437C87.6137 283.026 87.8644 282.653 88.1803 282.34Z" fill="url(#paint8_linear_1_20)" fill-opacity="0.1"/>
</g>
<g filter="url(#filter11_i_1_20)">
<path fill-rule="evenodd" clip-rule="evenodd" d="M288.54 120.466C289.042 120.968 289.373 121.617 289.485 122.318C290.871 138.706 289.458 155.21 285.306 171.124L238.32 123.633C254.092 119.524 270.449 118.133 286.688 119.521C287.389 119.633 288.038 119.963 288.54 120.466ZM168.719 169.101L123.217 241.837C122.81 242.484 122.635 243.25 122.721 244.01C122.807 244.769 123.148 245.477 123.689 246.017L162.989 285.317C163.301 285.636 163.673 285.889 164.084 286.063C164.495 286.236 164.936 286.327 165.382 286.329C166.018 286.332 166.641 286.144 167.169 285.789L240.141 240.085C260.711 224.683 275.836 203.123 283.317 178.539L230.905 125.689C206.076 133.154 184.285 148.366 168.719 169.101Z" fill="url(#paint9_linear_1_20)"/>
</g>
<g filter="url(#filter12_biii_1_20)">
<path d="M181.117 273.422C179.566 274.701 178.949 276.78 179.43 278.732C183.413 294.915 181.294 312.045 173.407 326.814C173.001 327.472 172.834 328.25 172.934 329.016C173.034 329.783 173.394 330.492 173.955 331.025C174.314 331.357 174.741 331.608 175.207 331.758C175.673 331.909 176.166 331.956 176.652 331.897C177.212 331.827 177.746 331.618 178.204 331.287C198.114 317.008 239.582 281.692 233.428 239.132C232.91 235.546 228.688 234.182 225.894 236.487L181.117 273.422Z" fill="url(#paint10_linear_1_20)" fill-opacity="0.09"/>
<path d="M181.117 273.422C179.566 274.701 178.949 276.78 179.43 278.732C183.413 294.915 181.294 312.045 173.407 326.814C173.001 327.472 172.834 328.25 172.934 329.016C173.034 329.783 173.394 330.492 173.955 331.025C174.314 331.357 174.741 331.608 175.207 331.758C175.673 331.909 176.166 331.956 176.652 331.897C177.212 331.827 177.746 331.618 178.204 331.287C198.114 317.008 239.582 281.692 233.428 239.132C232.91 235.546 228.688 234.182 225.894 236.487L181.117 273.422Z" fill="#506943" fill-opacity="0.05"/>
</g>
<g filter="url(#filter13_biii_1_20)">
<path d="M137.067 231.373C135.752 232.894 133.659 233.463 131.719 232.937C115.632 228.583 98.4578 230.307 83.5113 237.853C82.8438 238.243 82.0624 238.392 81.2981 238.275C80.5339 238.157 79.8332 237.781 79.3137 237.208C78.9895 236.841 78.7491 236.408 78.6092 235.939C78.4692 235.47 78.4332 234.976 78.5035 234.492C78.5864 233.933 78.8084 233.404 79.1489 232.954C93.883 213.377 130.143 172.733 172.551 179.864C176.123 180.465 177.39 184.717 175.021 187.458L137.067 231.373Z" fill="url(#paint11_linear_1_20)" fill-opacity="0.09"/>
<path d="M137.067 231.373C135.752 232.894 133.659 233.463 131.719 232.937C115.632 228.583 98.4578 230.307 83.5113 237.853C82.8438 238.243 82.0624 238.392 81.2981 238.275C80.5339 238.157 79.8332 237.781 79.3137 237.208C78.9895 236.841 78.7491 236.408 78.6092 235.939C78.4692 235.47 78.4332 234.976 78.5035 234.492C78.5864 233.933 78.8084 233.404 79.1489 232.954C93.883 213.377 130.143 172.733 172.551 179.864C176.123 180.465 177.39 184.717 175.021 187.458L137.067 231.373Z" fill="#506943" fill-opacity="0.05"/>
</g>
<g filter="url(#filter14_bdiii_1_20)">
<path d="M-nan -nanL129.824 273.992L112.971 290.845C112.655 291.158 112.405 291.531 112.233 291.942C112.062 292.353 111.974 292.793 111.974 293.238C111.974 293.683 112.062 294.124 112.233 294.534C112.405 294.945 112.655 295.318 112.971 295.631C113.286 295.944 113.66 296.191 114.07 296.358C114.481 296.526 114.921 296.611 115.364 296.609C116.249 296.605 117.096 296.254 117.724 295.631L134.576 278.778C134.892 278.465 135.143 278.092 135.314 277.682C135.485 277.271 135.573 276.83 135.573 276.385C135.573 275.94 135.485 275.5 135.314 275.089C135.143 274.678 134.892 274.306 134.576 273.992C133.945 273.365 133.091 273.012 132.2 273.012C131.31 273.012 130.455 273.365 129.824 273.992L-nan -nanL-nan -nanZ" fill="url(#paint12_linear_1_20)" fill-opacity="0.21"/>
<path d="M-nan -nanL129.824 273.992L112.971 290.845C112.655 291.158 112.405 291.531 112.233 291.942C112.062 292.353 111.974 292.793 111.974 293.238C111.974 293.683 112.062 294.124 112.233 294.534C112.405 294.945 112.655 295.318 112.971 295.631C113.286 295.944 113.66 296.191 114.07 296.358C114.481 296.526 114.921 296.611 115.364 296.609C116.249 296.605 117.096 296.254 117.724 295.631L134.576 278.778C134.892 278.465 135.143 278.092 135.314 277.682C135.485 277.271 135.573 276.83 135.573 276.385C135.573 275.94 135.485 275.5 135.314 275.089C135.143 274.678 134.892 274.306 134.576 273.992C133.945 273.365 133.091 273.012 132.2 273.012C131.31 273.012 130.455 273.365 129.824 273.992L-nan -nanL-nan -nanZ" fill="#D7FFC2" fill-opacity="0.1"/>
</g>
<g filter="url(#filter15_bdii_1_20)">
<path fill-rule="evenodd" clip-rule="evenodd" d="M128.633 243.4C128.659 243.374 128.663 243.333 128.643 243.303C128.624 243.274 128.626 243.236 128.649 243.21C128.944 242.877 129.302 242.606 129.703 242.412C130.121 242.21 130.576 242.096 131.041 242.078C131.505 242.061 131.968 242.139 132.4 242.308C132.833 242.478 133.226 242.735 133.554 243.063C133.883 243.392 134.14 243.784 134.309 244.217C134.479 244.65 134.557 245.112 134.539 245.577C134.521 246.041 134.407 246.496 134.205 246.914C134.003 247.333 133.716 247.704 133.363 248.007L125.847 255.523C125.25 256.187 124.413 256.587 123.521 256.635C122.855 256.632 122.204 256.432 121.651 256.059C121.098 255.687 120.669 255.158 120.416 254.542C120.163 253.925 120.1 253.247 120.232 252.593C120.365 251.94 120.689 251.341 121.162 250.872L128.633 243.4ZM92.5459 310.631L115.735 287.34C116.37 286.692 117.236 286.323 118.143 286.314C119.05 286.304 119.924 286.655 120.572 287.29C121.22 287.925 121.589 288.791 121.599 289.698C121.608 290.605 121.257 291.479 120.622 292.127L97.2984 315.417C96.6637 316.047 95.8047 316.4 94.9102 316.396C94.0158 316.393 93.1593 316.035 92.5291 315.4C91.8989 314.766 91.5466 313.906 91.5497 313.012C91.5529 312.118 91.9112 311.261 92.5459 310.631ZM142.335 262.997C142.356 263.027 142.352 263.068 142.326 263.094L134.854 270.565C134.381 271.035 134.057 271.634 133.924 272.287C133.792 272.941 133.856 273.619 134.108 274.235C134.361 274.852 134.79 275.381 135.343 275.753C135.896 276.126 136.547 276.326 137.213 276.329C138.105 276.281 138.942 275.881 139.539 275.217L147.055 267.7C147.408 267.398 147.695 267.026 147.897 266.608C148.099 266.19 148.213 265.735 148.231 265.271C148.249 264.806 148.171 264.343 148.001 263.911C147.832 263.478 147.575 263.086 147.246 262.757C146.918 262.429 146.525 262.172 146.092 262.002C145.66 261.833 145.197 261.754 144.733 261.772C144.269 261.79 143.813 261.904 143.395 262.106C142.994 262.3 142.636 262.571 142.341 262.904C142.318 262.93 142.316 262.968 142.335 262.997ZM160.183 274.947C160.208 274.922 160.247 274.918 160.277 274.937C160.306 274.957 160.345 274.953 160.37 274.929C161 274.325 161.841 273.988 162.715 273.992C163.609 273.995 164.466 274.353 165.096 274.988C165.726 275.622 166.079 276.481 166.075 277.376C166.072 278.27 165.714 279.127 165.079 279.757L157.563 287.273C156.935 287.896 156.088 288.247 155.204 288.251C154.76 288.253 154.32 288.168 153.91 288.001C153.499 287.833 153.125 287.586 152.81 287.273C152.495 286.96 152.244 286.587 152.073 286.176C151.902 285.766 151.813 285.325 151.813 284.88C151.813 284.435 151.902 283.995 152.073 283.584C152.244 283.173 152.495 282.8 152.81 282.487L160.183 274.947ZM138.149 297.014L124.296 310.833C123.98 311.147 123.729 311.519 123.558 311.93C123.387 312.341 123.299 312.781 123.299 313.226C123.299 313.671 123.387 314.112 123.558 314.523C123.729 314.933 123.98 315.306 124.296 315.619C124.611 315.932 124.985 316.179 125.395 316.347C125.806 316.514 126.246 316.599 126.689 316.597C127.133 316.599 127.572 316.514 127.983 316.347C128.394 316.179 128.767 315.932 129.082 315.619L142.901 301.767C143.454 301.122 143.742 300.292 143.709 299.444C143.677 298.596 143.325 297.791 142.725 297.191C142.124 296.591 141.32 296.239 140.471 296.206C139.623 296.173 138.794 296.462 138.149 297.014ZM88.1803 282.34L102.033 268.521C102.678 267.968 103.507 267.68 104.356 267.713C105.204 267.745 106.009 268.097 106.609 268.697C107.209 269.298 107.561 270.102 107.594 270.951C107.626 271.799 107.338 272.628 106.786 273.273L92.9665 287.126C92.6516 287.438 92.2781 287.685 91.8674 287.853C91.4567 288.021 91.017 288.106 90.5734 288.103C90.1298 288.106 89.6901 288.021 89.2795 287.853C88.8688 287.685 88.4953 287.438 88.1803 287.126C87.8644 286.813 87.6137 286.44 87.4426 286.029C87.2715 285.618 87.1833 285.178 87.1833 284.733C87.1833 284.288 87.2715 283.847 87.4426 283.437C87.6137 283.026 87.8644 282.653 88.1803 282.34Z" fill="url(#paint13_linear_1_20)" fill-opacity="0.1"/>
</g>
<g filter="url(#filter16_bdii_1_20)">
<circle cx="226.356" cy="179.251" r="25.4583" fill="url(#paint14_linear_1_20)" fill-opacity="0.21"/>
<circle cx="226.356" cy="179.251" r="25.4583" fill="#D8FFC5" fill-opacity="0.26"/>
</g>
<g filter="url(#filter17_d_1_20)">
<path d="M392.241 176.268L411.393 210.54L430.545 176.268L434.913 216H442.053L434.913 154.26L411.393 196.848L387.873 154.26L380.733 216H387.873L392.241 176.268ZM466.629 216.84C470.773 216.84 474.357 216.028 477.381 214.404C480.461 212.724 483.009 210.26 485.025 207.012L479.565 203.568C478.165 205.92 476.457 207.684 474.441 208.86C472.425 209.98 470.101 210.54 467.469 210.54C464.837 210.54 462.597 209.98 460.749 208.86C458.901 207.74 457.501 206.116 456.549 203.988C455.597 201.86 455.121 199.284 455.121 196.26C455.177 193.292 455.681 190.8 456.633 188.784C457.641 186.712 459.041 185.144 460.833 184.08C462.681 182.96 464.893 182.4 467.469 182.4C469.653 182.4 471.557 182.876 473.181 183.828C474.805 184.78 476.065 186.096 476.961 187.776C477.913 189.456 478.389 191.444 478.389 193.74C478.389 194.132 478.305 194.636 478.137 195.252C477.969 195.812 477.801 196.232 477.633 196.512L480.321 192.648H452.601V198.36H485.613C485.613 198.248 485.613 197.996 485.613 197.604C485.669 197.156 485.697 196.736 485.697 196.344C485.697 192.256 484.969 188.728 483.513 185.76C482.057 182.792 479.957 180.524 477.213 178.956C474.525 177.332 471.277 176.52 467.469 176.52C463.661 176.52 460.301 177.36 457.389 179.04C454.533 180.72 452.293 183.072 450.669 186.096C449.101 189.12 448.317 192.648 448.317 196.68C448.317 200.656 449.073 204.156 450.585 207.18C452.153 210.204 454.309 212.584 457.053 214.32C459.853 216 463.045 216.84 466.629 216.84ZM523.887 150.48V216H530.607V150.48H523.887ZM491.547 196.68C491.547 200.824 492.415 204.408 494.151 207.432C495.887 210.456 498.211 212.78 501.123 214.404C504.035 216.028 507.227 216.84 510.699 216.84C513.947 216.84 516.775 216.028 519.183 214.404C521.591 212.78 523.467 210.456 524.811 207.432C526.211 204.408 526.911 200.824 526.911 196.68C526.911 192.48 526.211 188.896 524.811 185.928C523.467 182.904 521.591 180.58 519.183 178.956C516.775 177.332 513.947 176.52 510.699 176.52C507.227 176.52 504.035 177.332 501.123 178.956C498.211 180.58 495.887 182.904 494.151 185.928C492.415 188.896 491.547 192.48 491.547 196.68ZM498.351 196.68C498.351 193.712 498.939 191.192 500.115 189.12C501.347 187.048 502.971 185.48 504.987 184.416C507.003 183.352 509.187 182.82 511.539 182.82C513.499 182.82 515.431 183.352 517.335 184.416C519.239 185.48 520.807 187.048 522.039 189.12C523.271 191.192 523.887 193.712 523.887 196.68C523.887 199.648 523.271 202.168 522.039 204.24C520.807 206.312 519.239 207.88 517.335 208.944C515.431 210.008 513.499 210.54 511.539 210.54C509.187 210.54 507.003 210.008 504.987 208.944C502.971 207.88 501.347 206.312 500.115 204.24C498.939 202.168 498.351 199.648 498.351 196.68ZM547.182 163.92H573.474V157.2H547.182V163.92ZM547.182 187.44H572.634V180.72H547.182V187.44ZM543.234 157.2V216H550.374V157.2H543.234ZM585.295 204.072C585.295 202.672 585.631 201.468 586.303 200.46C586.975 199.452 587.983 198.668 589.327 198.108C590.727 197.548 592.519 197.268 594.703 197.268C597.055 197.268 599.267 197.576 601.339 198.192C603.411 198.752 605.427 199.704 607.387 201.048V197.1C606.995 196.596 606.239 195.952 605.119 195.168C603.999 194.328 602.487 193.6 600.583 192.984C598.735 192.312 596.411 191.976 593.611 191.976C588.851 191.976 585.127 193.124 582.439 195.42C579.807 197.66 578.491 200.656 578.491 204.408C578.491 207.04 579.107 209.28 580.339 211.128C581.571 212.976 583.195 214.404 585.211 215.412C587.283 216.364 589.495 216.84 591.847 216.84C593.975 216.84 596.103 216.448 598.231 215.664C600.415 214.88 602.235 213.676 603.691 212.052C605.203 210.428 605.959 208.384 605.959 205.92L604.615 200.88C604.615 202.896 604.111 204.688 603.103 206.256C602.151 207.768 600.835 208.944 599.155 209.784C597.531 210.624 595.683 211.044 593.611 211.044C591.987 211.044 590.531 210.792 589.243 210.288C588.011 209.728 587.031 208.916 586.303 207.852C585.631 206.788 585.295 205.528 585.295 204.072ZM584.287 186.264C584.903 185.816 585.743 185.284 586.807 184.668C587.871 184.052 589.159 183.52 590.671 183.072C592.239 182.624 593.975 182.4 595.879 182.4C597.055 182.4 598.175 182.512 599.239 182.736C600.303 182.96 601.227 183.324 602.011 183.828C602.851 184.332 603.495 185.032 603.943 185.928C604.391 186.768 604.615 187.86 604.615 189.204V216H611.335V188.28C611.335 185.76 610.691 183.632 609.403 181.896C608.171 180.16 606.407 178.844 604.111 177.948C601.871 176.996 599.239 176.52 596.215 176.52C592.631 176.52 589.551 177.052 586.975 178.116C584.455 179.18 582.467 180.244 581.011 181.308L584.287 186.264ZM651.692 150.48V216H658.412V150.48H651.692ZM619.352 196.68C619.352 200.824 620.22 204.408 621.956 207.432C623.692 210.456 626.016 212.78 628.928 214.404C631.84 216.028 635.032 216.84 638.504 216.84C641.752 216.84 644.58 216.028 646.988 214.404C649.396 212.78 651.272 210.456 652.616 207.432C654.016 204.408 654.716 200.824 654.716 196.68C654.716 192.48 654.016 188.896 652.616 185.928C651.272 182.904 649.396 180.58 646.988 178.956C644.58 177.332 641.752 176.52 638.504 176.52C635.032 176.52 631.84 177.332 628.928 178.956C626.016 180.58 623.692 182.904 621.956 185.928C620.22 188.896 619.352 192.48 619.352 196.68ZM626.156 196.68C626.156 193.712 626.744 191.192 627.92 189.12C629.152 187.048 630.776 185.48 632.792 184.416C634.808 183.352 636.992 182.82 639.344 182.82C641.304 182.82 643.236 183.352 645.14 184.416C647.044 185.48 648.612 187.048 649.844 189.12C651.076 191.192 651.692 193.712 651.692 196.68C651.692 199.648 651.076 202.168 649.844 204.24C648.612 206.312 647.044 207.88 645.14 208.944C643.236 210.008 641.304 210.54 639.344 210.54C636.992 210.54 634.808 210.008 632.792 208.944C630.776 207.88 629.152 206.312 627.92 204.24C626.744 202.168 626.156 199.648 626.156 196.68ZM685.57 216.84C689.714 216.84 693.298 216.028 696.322 214.404C699.402 212.724 701.95 210.26 703.966 207.012L698.506 203.568C697.106 205.92 695.398 207.684 693.382 208.86C691.366 209.98 689.042 210.54 686.41 210.54C683.778 210.54 681.538 209.98 679.69 208.86C677.842 207.74 676.442 206.116 675.49 203.988C674.538 201.86 674.062 199.284 674.062 196.26C674.118 193.292 674.622 190.8 675.574 188.784C676.582 186.712 677.982 185.144 679.774 184.08C681.622 182.96 683.834 182.4 686.41 182.4C688.594 182.4 690.498 182.876 692.122 183.828C693.746 184.78 695.006 186.096 695.902 187.776C696.854 189.456 697.33 191.444 697.33 193.74C697.33 194.132 697.246 194.636 697.078 195.252C696.91 195.812 696.742 196.232 696.574 196.512L699.262 192.648H671.542V198.36H704.554C704.554 198.248 704.554 197.996 704.554 197.604C704.61 197.156 704.638 196.736 704.638 196.344C704.638 192.256 703.91 188.728 702.454 185.76C700.998 182.792 698.898 180.524 696.154 178.956C693.466 177.332 690.218 176.52 686.41 176.52C682.602 176.52 679.242 177.36 676.33 179.04C673.474 180.72 671.234 183.072 669.61 186.096C668.042 189.12 667.258 192.648 667.258 196.68C667.258 200.656 668.014 204.156 669.526 207.18C671.094 210.204 673.25 212.584 675.994 214.32C678.794 216 681.986 216.84 685.57 216.84ZM713.849 150.48V216H720.569V150.48H713.849ZM741.776 176.268L760.928 210.54L780.08 176.268L784.448 216H791.588L784.448 154.26L760.928 196.848L737.408 154.26L730.268 216H737.408L741.776 176.268ZM797.852 196.68C797.852 200.544 798.72 204.016 800.456 207.096C802.248 210.12 804.656 212.5 807.68 214.236C810.704 215.972 814.092 216.84 817.844 216.84C821.652 216.84 825.04 215.972 828.008 214.236C831.032 212.5 833.412 210.12 835.148 207.096C836.94 204.016 837.836 200.544 837.836 196.68C837.836 192.76 836.94 189.288 835.148 186.264C833.412 183.24 831.032 180.86 828.008 179.124C825.04 177.388 821.652 176.52 817.844 176.52C814.092 176.52 810.704 177.388 807.68 179.124C804.656 180.86 802.248 183.24 800.456 186.264C798.72 189.288 797.852 192.76 797.852 196.68ZM804.656 196.68C804.656 193.992 805.216 191.612 806.336 189.54C807.512 187.412 809.08 185.76 811.04 184.584C813.056 183.408 815.324 182.82 817.844 182.82C820.364 182.82 822.604 183.408 824.564 184.584C826.58 185.76 828.148 187.412 829.268 189.54C830.444 191.612 831.032 193.992 831.032 196.68C831.032 199.368 830.444 201.748 829.268 203.82C828.148 205.892 826.58 207.544 824.564 208.776C822.604 209.952 820.364 210.54 817.844 210.54C815.324 210.54 813.056 209.952 811.04 208.776C809.08 207.544 807.512 205.892 806.336 203.82C805.216 201.748 804.656 199.368 804.656 196.68ZM853.788 200.88V177.36H847.068V201.72C847.068 206.312 848.272 209.98 850.68 212.724C853.088 215.468 856.308 216.84 860.34 216.84C862.916 216.84 865.156 216.28 867.06 215.16C868.964 213.984 870.56 212.248 871.848 209.952V216H878.568V177.36H871.848V200.88C871.848 202.784 871.428 204.464 870.588 205.92C869.804 207.376 868.656 208.524 867.144 209.364C865.688 210.148 863.98 210.54 862.02 210.54C859.332 210.54 857.288 209.7 855.888 208.02C854.488 206.34 853.788 203.96 853.788 200.88ZM944.12 191.64C944.12 188.448 943.616 185.732 942.608 183.492C941.656 181.196 940.256 179.46 938.408 178.284C936.56 177.108 934.32 176.52 931.688 176.52C929.112 176.52 926.816 177.136 924.8 178.368C922.784 179.544 921.104 181.336 919.76 183.744C918.864 181.448 917.436 179.684 915.476 178.452C913.572 177.164 911.276 176.52 908.588 176.52C906.18 176.52 904.08 177.052 902.288 178.116C900.552 179.18 899.096 180.804 897.92 182.988V177.36H891.2V216H897.92V192.48C897.92 190.464 898.284 188.728 899.012 187.272C899.74 185.816 900.776 184.724 902.12 183.996C903.464 183.212 905.06 182.82 906.908 182.82C909.428 182.82 911.276 183.604 912.452 185.172C913.684 186.74 914.3 189.176 914.3 192.48V216H921.02V192.48C921.02 190.464 921.384 188.728 922.112 187.272C922.84 185.816 923.876 184.724 925.22 183.996C926.564 183.212 928.16 182.82 930.008 182.82C932.528 182.82 934.376 183.604 935.552 185.172C936.784 186.74 937.4 189.176 937.4 192.48V216H944.12V191.64ZM971.695 216.84C975.839 216.84 979.423 216.028 982.447 214.404C985.527 212.724 988.075 210.26 990.091 207.012L984.631 203.568C983.231 205.92 981.523 207.684 979.507 208.86C977.491 209.98 975.167 210.54 972.535 210.54C969.903 210.54 967.663 209.98 965.815 208.86C963.967 207.74 962.567 206.116 961.615 203.988C960.663 201.86 960.187 199.284 960.187 196.26C960.243 193.292 960.747 190.8 961.699 188.784C962.707 186.712 964.107 185.144 965.899 184.08C967.747 182.96 969.959 182.4 972.535 182.4C974.719 182.4 976.623 182.876 978.247 183.828C979.871 184.78 981.131 186.096 982.027 187.776C982.979 189.456 983.455 191.444 983.455 193.74C983.455 194.132 983.371 194.636 983.203 195.252C983.035 195.812 982.867 196.232 982.699 196.512L985.387 192.648H957.667V198.36H990.679C990.679 198.248 990.679 197.996 990.679 197.604C990.735 197.156 990.763 196.736 990.763 196.344C990.763 192.256 990.035 188.728 988.579 185.76C987.123 182.792 985.023 180.524 982.279 178.956C979.591 177.332 976.343 176.52 972.535 176.52C968.727 176.52 965.367 177.36 962.455 179.04C959.599 180.72 957.359 183.072 955.735 186.096C954.167 189.12 953.383 192.648 953.383 196.68C953.383 200.656 954.139 204.156 955.651 207.18C957.219 210.204 959.375 212.584 962.119 214.32C964.919 216 968.111 216.84 971.695 216.84ZM1024.75 192.48V216H1031.47V191.64C1031.47 186.992 1030.27 183.324 1027.86 180.636C1025.51 177.892 1022.29 176.52 1018.2 176.52C1015.68 176.52 1013.44 177.08 1011.48 178.2C1009.58 179.32 1007.98 181.056 1006.69 183.408V177.36H999.974V216H1006.69V192.48C1006.69 190.576 1007.09 188.896 1007.87 187.44C1008.71 185.984 1009.86 184.864 1011.31 184.08C1012.83 183.24 1014.56 182.82 1016.52 182.82C1019.21 182.82 1021.25 183.632 1022.65 185.256C1024.05 186.88 1024.75 189.288 1024.75 192.48ZM1044.11 161.4C1044.11 162.632 1044.55 163.724 1045.45 164.676C1046.4 165.572 1047.49 166.02 1048.73 166.02C1050.01 166.02 1051.11 165.572 1052 164.676C1052.9 163.724 1053.35 162.632 1053.35 161.4C1053.35 160.112 1052.9 159.02 1052 158.124C1051.11 157.228 1050.01 156.78 1048.73 156.78C1047.49 156.78 1046.4 157.228 1045.45 158.124C1044.55 159.02 1044.11 160.112 1044.11 161.4ZM1045.37 177.36V216H1052.09V177.36H1045.37Z" fill="#3BE8B0"/>
</g>
<defs>
<filter id="filter0_i_1_20" x="72" y="135" width="227" height="221" filterUnits="userSpaceOnUse" color-interpolation-filters="sRGB">
<feFlood flood-opacity="0" result="BackgroundImageFix"/>
<feBlend mode="normal" in="SourceGraphic" in2="BackgroundImageFix" result="shape"/>
<feColorMatrix in="SourceAlpha" type="matrix" values="0 0 0 0 0 0 0 0 0 0 0 0 0 0 0 0 0 0 127 0" result="hardAlpha"/>
<feOffset dx="9" dy="-3"/>
<feGaussianBlur stdDeviation="10"/>
<feComposite in2="hardAlpha" operator="arithmetic" k2="-1" k3="1"/>
<feColorMatrix type="matrix" values="0 0 0 0 0 0 0 0 0 0 0 0 0 0 0 0 0 0 0.17 0"/>
<feBlend mode="normal" in2="shape" result="effect1_innerShadow_1_20"/>
</filter>
<filter id="filter1_b_1_20" x="-54" y="-43" width="470" height="470" filterUnits="userSpaceOnUse" color-interpolation-filters="sRGB">
<feFlood flood-opacity="0" result="BackgroundImageFix"/>
<feGaussianBlur in="BackgroundImage" stdDeviation="27"/>
<feComposite in2="SourceAlpha" operator="in" result="effect1_backgroundBlur_1_20"/>
<feBlend mode="normal" in="SourceGraphic" in2="effect1_backgroundBlur_1_20" result="shape"/>
</filter>
<filter id="filter2_b_1_20" x="-24" y="-13" width="410" height="410" filterUnits="userSpaceOnUse" color-interpolation-filters="sRGB">
<feFlood flood-opacity="0" result="BackgroundImageFix"/>
<feGaussianBlur in="BackgroundImage" stdDeviation="27"/>
<feComposite in2="SourceAlpha" operator="in" result="effect1_backgroundBlur_1_20"/>
<feBlend mode="normal" in="SourceGraphic" in2="effect1_backgroundBlur_1_20" result="shape"/>
</filter>
<filter id="filter3_i_1_20" x="303.173" y="51.8392" width="33.5333" height="27.5333" filterUnits="userSpaceOnUse" color-interpolation-filters="sRGB">
<feFlood flood-opacity="0" result="BackgroundImageFix"/>
<feBlend mode="normal" in="SourceGraphic" in2="BackgroundImageFix" result="shape"/>
<feColorMatrix in="SourceAlpha" type="matrix" values="0 0 0 0 0 0 0 0 0 0 0 0 0 0 0 0 0 0 127 0" result="hardAlpha"/>
<feOffset dx="9" dy="-3"/>
<feGaussianBlur stdDeviation="10"/>
<feComposite in2="hardAlpha" operator="arithmetic" k2="-1" k3="1"/>
<feColorMatrix type="matrix" values="0 0 0 0 0 0 0 0 0 0 0 0 0 0 0 0 0 0 0.17 0"/>
<feBlend mode="normal" in2="shape" result="effect1_innerShadow_1_20"/>
</filter>
<filter id="filter4_i_1_20" x="336.365" y="239.447" width="43.6353" height="37.6353" filterUnits="userSpaceOnUse" color-interpolation-filters="sRGB">
<feFlood flood-opacity="0" result="BackgroundImageFix"/>
<feBlend mode="normal" in="SourceGraphic" in2="BackgroundImageFix" result="shape"/>
<feColorMatrix in="SourceAlpha" type="matrix" values="0 0 0 0 0 0 0 0 0 0 0 0 0 0 0 0 0 0 127 0" result="hardAlpha"/>
<feOffset dx="9" dy="-3"/>
<feGaussianBlur stdDeviation="10"/>
<feComposite in2="hardAlpha" operator="arithmetic" k2="-1" k3="1"/>
<feColorMatrix type="matrix" values="0 0 0 0 0 0 0 0 0 0 0 0 0 0 0 0 0 0 0.17 0"/>
<feBlend mode="normal" in2="shape" result="effect1_innerShadow_1_20"/>
</filter>
<filter id="filter5_i_1_20" x="30.4196" y="-3" width="34.9765" height="28.9765" filterUnits="userSpaceOnUse" color-interpolation-filters="sRGB">
<feFlood flood-opacity="0" result="BackgroundImageFix"/>
<feBlend mode="normal" in="SourceGraphic" in2="BackgroundImageFix" result="shape"/>
<feColorMatrix in="SourceAlpha" type="matrix" values="0 0 0 0 0 0 0 0 0 0 0 0 0 0 0 0 0 0 127 0" result="hardAlpha"/>
<feOffset dx="9" dy="-3"/>
<feGaussianBlur stdDeviation="10"/>
<feComposite in2="hardAlpha" operator="arithmetic" k2="-1" k3="1"/>
<feColorMatrix type="matrix" values="0 0 0 0 0 0 0 0 0 0 0 0 0 0 0 0 0 0 0.17 0"/>
<feBlend mode="normal" in2="shape" result="effect1_innerShadow_1_20"/>
</filter>
<filter id="filter6_i_1_20" x="41.9647" y="125.439" width="23.4314" height="17.4314" filterUnits="userSpaceOnUse" color-interpolation-filters="sRGB">
<feFlood flood-opacity="0" result="BackgroundImageFix"/>
<feBlend mode="normal" in="SourceGraphic" in2="BackgroundImageFix" result="shape"/>
<feColorMatrix in="SourceAlpha" type="matrix" values="0 0 0 0 0 0 0 0 0 0 0 0 0 0 0 0 0 0 127 0" result="hardAlpha"/>
<feOffset dx="9" dy="-3"/>
<feGaussianBlur stdDeviation="10"/>
<feComposite in2="hardAlpha" operator="arithmetic" k2="-1" k3="1"/>
<feColorMatrix type="matrix" values="0 0 0 0 0 0 0 0 0 0 0 0 0 0 0 0 0 0 0.17 0"/>
<feBlend mode="normal" in2="shape" result="effect1_innerShadow_1_20"/>
</filter>
<filter id="filter7_i_1_20" x="3" y="227.902" width="32.0902" height="26.0902" filterUnits="userSpaceOnUse" color-interpolation-filters="sRGB">
<feFlood flood-opacity="0" result="BackgroundImageFix"/>
<feBlend mode="normal" in="SourceGraphic" in2="BackgroundImageFix" result="shape"/>
<feColorMatrix in="SourceAlpha" type="matrix" values="0 0 0 0 0 0 0 0 0 0 0 0 0 0 0 0 0 0 127 0" result="hardAlpha"/>
<feOffset dx="9" dy="-3"/>
<feGaussianBlur stdDeviation="10"/>
<feComposite in2="hardAlpha" operator="arithmetic" k2="-1" k3="1"/>
<feColorMatrix type="matrix" values="0 0 0 0 0 0 0 0 0 0 0 0 0 0 0 0 0 0 0.17 0"/>
<feBlend mode="normal" in2="shape" result="effect1_innerShadow_1_20"/>
</filter>
<filter id="filter8_i_1_20" x="122.7" y="116" width="176.301" height="170.329" filterUnits="userSpaceOnUse" color-interpolation-filters="sRGB">
<feFlood flood-opacity="0" result="BackgroundImageFix"/>
<feBlend mode="normal" in="SourceGraphic" in2="BackgroundImageFix" result="shape"/>
<feColorMatrix in="SourceAlpha" type="matrix" values="0 0 0 0 0 0 0 0 0 0 0 0 0 0 0 0 0 0 127 0" result="hardAlpha"/>
<feOffset dx="9" dy="-3"/>
<feGaussianBlur stdDeviation="10"/>
<feComposite in2="hardAlpha" operator="arithmetic" k2="-1" k3="1"/>
<feColorMatrix type="matrix" values="0 0 0 0 0 0 0 0 0 0 0 0 0 0 0 0 0 0 0.17 0"/>
<feBlend mode="normal" in2="shape" result="effect1_innerShadow_1_20"/>
</filter>
<filter id="filter9_bdiii_1_20" x="91.9742" y="253.012" width="72.5991" height="68.5965" filterUnits="userSpaceOnUse" color-interpolation-filters="sRGB">
<feFlood flood-opacity="0" result="BackgroundImageFix"/>
<feGaussianBlur in="BackgroundImage" stdDeviation="10"/>
<feComposite in2="SourceAlpha" operator="in" result="effect1_backgroundBlur_1_20"/>
<feColorMatrix in="SourceAlpha" type="matrix" values="0 0 0 0 0 0 0 0 0 0 0 0 0 0 0 0 0 0 127 0" result="hardAlpha"/>
<feOffset dx="9" dy="5"/>
<feGaussianBlur stdDeviation="10"/>
<feColorMatrix type="matrix" values="0 0 0 0 0.0690278 0 0 0 0 0.295833 0 0 0 0 0.11166 0 0 0 0.08 0"/>
<feBlend mode="normal" in2="effect1_backgroundBlur_1_20" result="effect2_dropShadow_1_20"/>
<feBlend mode="normal" in="SourceGraphic" in2="effect2_dropShadow_1_20" result="shape"/>
<feColorMatrix in="SourceAlpha" type="matrix" values="0 0 0 0 0 0 0 0 0 0 0 0 0 0 0 0 0 0 127 0" result="hardAlpha"/>
<feOffset dx="-10" dy="10"/>
<feGaussianBlur stdDeviation="5"/>
<feComposite in2="hardAlpha" operator="arithmetic" k2="-1" k3="1"/>
<feColorMatrix type="matrix" values="0 0 0 0 1 0 0 0 0 1 0 0 0 0 1 0 0 0 0.15 0"/>
<feBlend mode="normal" in2="shape" result="effect3_innerShadow_1_20"/>
<feColorMatrix in="SourceAlpha" type="matrix" values="0 0 0 0 0 0 0 0 0 0 0 0 0 0 0 0 0 0 127 0" result="hardAlpha"/>
<feOffset dy="-10"/>
<feGaussianBlur stdDeviation="5"/>
<feComposite in2="hardAlpha" operator="arithmetic" k2="-1" k3="1"/>
<feColorMatrix type="matrix" values="0 0 0 0 0.156863 0 0 0 0 0.67451 0 0 0 0 0.25098 0 0 0 0.3 0"/>
<feBlend mode="normal" in2="effect3_innerShadow_1_20" result="effect4_innerShadow_1_20"/>
<feColorMatrix in="SourceAlpha" type="matrix" values="0 0 0 0 0 0 0 0 0 0 0 0 0 0 0 0 0 0 127 0" result="hardAlpha"/>
<feOffset dx="-3" dy="6"/>
<feGaussianBlur stdDeviation="7.5"/>
<feComposite in2="hardAlpha" operator="arithmetic" k2="-1" k3="1"/>
<feColorMatrix type="matrix" values="0 0 0 0 0.0770313 0 0 0 0 0.6375 0 0 0 0 0.178935 0 0 0 0.09 0"/>
<feBlend mode="normal" in2="effect4_innerShadow_1_20" result="effect5_innerShadow_1_20"/>
</filter>
<filter id="filter10_bdii_1_20" x="67.1833" y="222.076" width="127.892" height="119.521" filterUnits="userSpaceOnUse" color-interpolation-filters="sRGB">
<feFlood flood-opacity="0" result="BackgroundImageFix"/>
<feGaussianBlur in="BackgroundImage" stdDeviation="10"/>
<feComposite in2="SourceAlpha" operator="in" result="effect1_backgroundBlur_1_20"/>
<feColorMatrix in="SourceAlpha" type="matrix" values="0 0 0 0 0 0 0 0 0 0 0 0 0 0 0 0 0 0 127 0" result="hardAlpha"/>
<feOffset dx="9" dy="5"/>
<feGaussianBlur stdDeviation="10"/>
<feColorMatrix type="matrix" values="0 0 0 0 0.0690278 0 0 0 0 0.295833 0 0 0 0 0.11166 0 0 0 0.08 0"/>
<feBlend mode="normal" in2="effect1_backgroundBlur_1_20" result="effect2_dropShadow_1_20"/>
<feBlend mode="normal" in="SourceGraphic" in2="effect2_dropShadow_1_20" result="shape"/>
<feColorMatrix in="SourceAlpha" type="matrix" values="0 0 0 0 0 0 0 0 0 0 0 0 0 0 0 0 0 0 127 0" result="hardAlpha"/>
<feOffset/>
<feGaussianBlur stdDeviation="5"/>
<feComposite in2="hardAlpha" operator="arithmetic" k2="-1" k3="1"/>
<feColorMatrix type="matrix" values="0 0 0 0 0.156863 0 0 0 0 0.67451 0 0 0 0 0.25098 0 0 0 0.2 0"/>
<feBlend mode="normal" in2="shape" result="effect3_innerShadow_1_20"/>
<feColorMatrix in="SourceAlpha" type="matrix" values="0 0 0 0 0 0 0 0 0 0 0 0 0 0 0 0 0 0 127 0" result="hardAlpha"/>
<feOffset dx="-3" dy="6"/>
<feGaussianBlur stdDeviation="7.5"/>
<feComposite in2="hardAlpha" operator="arithmetic" k2="-1" k3="1"/>
<feColorMatrix type="matrix" values="0 0 0 0 0.0770313 0 0 0 0 0.6375 0 0 0 0 0.178935 0 0 0 0.09 0"/>
<feBlend mode="normal" in2="effect3_innerShadow_1_20" result="effect4_innerShadow_1_20"/>
</filter>
<filter id="filter11_i_1_20" x="122.699" y="116" width="176.301" height="170.329" filterUnits="userSpaceOnUse" color-interpolation-filters="sRGB">
<feFlood flood-opacity="0" result="BackgroundImageFix"/>
<feBlend mode="normal" in="SourceGraphic" in2="BackgroundImageFix" result="shape"/>
<feColorMatrix in="SourceAlpha" type="matrix" values="0 0 0 0 0 0 0 0 0 0 0 0 0 0 0 0 0 0 127 0" result="hardAlpha"/>
<feOffset dx="9" dy="-3"/>
<feGaussianBlur stdDeviation="10"/>
<feComposite in2="hardAlpha" operator="arithmetic" k2="-1" k3="1"/>
<feColorMatrix type="matrix" values="0 0 0 0 0 0 0 0 0 0 0 0 0 0 0 0 0 0 0.17 0"/>
<feBlend mode="normal" in2="shape" result="effect1_innerShadow_1_20"/>
</filter>
<filter id="filter12_biii_1_20" x="152.906" y="215.351" width="101.139" height="136.571" filterUnits="userSpaceOnUse" color-interpolation-filters="sRGB">
<feFlood flood-opacity="0" result="BackgroundImageFix"/>
<feGaussianBlur in="BackgroundImage" stdDeviation="10"/>
<feComposite in2="SourceAlpha" operator="in" result="effect1_backgroundBlur_1_20"/>
<feBlend mode="normal" in="SourceGraphic" in2="effect1_backgroundBlur_1_20" result="shape"/>
<feColorMatrix in="SourceAlpha" type="matrix" values="0 0 0 0 0 0 0 0 0 0 0 0 0 0 0 0 0 0 127 0" result="hardAlpha"/>
<feOffset dx="-10" dy="10"/>
<feGaussianBlur stdDeviation="5"/>
<feComposite in2="hardAlpha" operator="arithmetic" k2="-1" k3="1"/>
<feColorMatrix type="matrix" values="0 0 0 0 1 0 0 0 0 1 0 0 0 0 1 0 0 0 0.15 0"/>
<feBlend mode="normal" in2="shape" result="effect2_innerShadow_1_20"/>
<feColorMatrix in="SourceAlpha" type="matrix" values="0 0 0 0 0 0 0 0 0 0 0 0 0 0 0 0 0 0 127 0" result="hardAlpha"/>
<feOffset dy="-10"/>
<feGaussianBlur stdDeviation="5"/>
<feComposite in2="hardAlpha" operator="arithmetic" k2="-1" k3="1"/>
<feColorMatrix type="matrix" values="0 0 0 0 0.156863 0 0 0 0 0.67451 0 0 0 0 0.25098 0 0 0 0.05 0"/>
<feBlend mode="normal" in2="effect2_innerShadow_1_20" result="effect3_innerShadow_1_20"/>
<feColorMatrix in="SourceAlpha" type="matrix" values="0 0 0 0 0 0 0 0 0 0 0 0 0 0 0 0 0 0 127 0" result="hardAlpha"/>
<feOffset dx="-3" dy="6"/>
<feGaussianBlur stdDeviation="7.5"/>
<feComposite in2="hardAlpha" operator="arithmetic" k2="-1" k3="1"/>
<feColorMatrix type="matrix" values="0 0 0 0 0.0770313 0 0 0 0 0.6375 0 0 0 0 0.178935 0 0 0 0.2 0"/>
<feBlend mode="normal" in2="effect3_innerShadow_1_20" result="effect4_innerShadow_1_20"/>
</filter>
<filter id="filter13_biii_1_20" x="58.4685" y="159.035" width="137.761" height="99.2791" filterUnits="userSpaceOnUse" color-interpolation-filters="sRGB">
<feFlood flood-opacity="0" result="BackgroundImageFix"/>
<feGaussianBlur in="BackgroundImage" stdDeviation="10"/>
<feComposite in2="SourceAlpha" operator="in" result="effect1_backgroundBlur_1_20"/>
<feBlend mode="normal" in="SourceGraphic" in2="effect1_backgroundBlur_1_20" result="shape"/>
<feColorMatrix in="SourceAlpha" type="matrix" values="0 0 0 0 0 0 0 0 0 0 0 0 0 0 0 0 0 0 127 0" result="hardAlpha"/>
<feOffset dx="-10" dy="10"/>
<feGaussianBlur stdDeviation="5"/>
<feComposite in2="hardAlpha" operator="arithmetic" k2="-1" k3="1"/>
<feColorMatrix type="matrix" values="0 0 0 0 1 0 0 0 0 1 0 0 0 0 1 0 0 0 0.15 0"/>
<feBlend mode="normal" in2="shape" result="effect2_innerShadow_1_20"/>
<feColorMatrix in="SourceAlpha" type="matrix" values="0 0 0 0 0 0 0 0 0 0 0 0 0 0 0 0 0 0 127 0" result="hardAlpha"/>
<feOffset dy="-10"/>
<feGaussianBlur stdDeviation="5"/>
<feComposite in2="hardAlpha" operator="arithmetic" k2="-1" k3="1"/>
<feColorMatrix type="matrix" values="0 0 0 0 0.156863 0 0 0 0 0.67451 0 0 0 0 0.25098 0 0 0 0.05 0"/>
<feBlend mode="normal" in2="effect2_innerShadow_1_20" result="effect3_innerShadow_1_20"/>
<feColorMatrix in="SourceAlpha" type="matrix" values="0 0 0 0 0 0 0 0 0 0 0 0 0 0 0 0 0 0 127 0" result="hardAlpha"/>
<feOffset dx="-3" dy="6"/>
<feGaussianBlur stdDeviation="7.5"/>
<feComposite in2="hardAlpha" operator="arithmetic" k2="-1" k3="1"/>
<feColorMatrix type="matrix" values="0 0 0 0 0.0770313 0 0 0 0 0.6375 0 0 0 0 0.178935 0 0 0 0.2 0"/>
<feBlend mode="normal" in2="effect3_innerShadow_1_20" result="effect4_innerShadow_1_20"/>
</filter>
<filter id="filter14_bdiii_1_20" x="91.9742" y="253.012" width="72.5991" height="68.5965" filterUnits="userSpaceOnUse" color-interpolation-filters="sRGB">
<feFlood flood-opacity="0" result="BackgroundImageFix"/>
<feGaussianBlur in="BackgroundImage" stdDeviation="10"/>
<feComposite in2="SourceAlpha" operator="in" result="effect1_backgroundBlur_1_20"/>
<feColorMatrix in="SourceAlpha" type="matrix" values="0 0 0 0 0 0 0 0 0 0 0 0 0 0 0 0 0 0 127 0" result="hardAlpha"/>
<feOffset dx="9" dy="5"/>
<feGaussianBlur stdDeviation="10"/>
<feColorMatrix type="matrix" values="0 0 0 0 0.0690278 0 0 0 0 0.295833 0 0 0 0 0.11166 0 0 0 0.08 0"/>
<feBlend mode="normal" in2="effect1_backgroundBlur_1_20" result="effect2_dropShadow_1_20"/>
<feBlend mode="normal" in="SourceGraphic" in2="effect2_dropShadow_1_20" result="shape"/>
<feColorMatrix in="SourceAlpha" type="matrix" values="0 0 0 0 0 0 0 0 0 0 0 0 0 0 0 0 0 0 127 0" result="hardAlpha"/>
<feOffset dx="-10" dy="10"/>
<feGaussianBlur stdDeviation="5"/>
<feComposite in2="hardAlpha" operator="arithmetic" k2="-1" k3="1"/>
<feColorMatrix type="matrix" values="0 0 0 0 1 0 0 0 0 1 0 0 0 0 1 0 0 0 0.15 0"/>
<feBlend mode="normal" in2="shape" result="effect3_innerShadow_1_20"/>
<feColorMatrix in="SourceAlpha" type="matrix" values="0 0 0 0 0 0 0 0 0 0 0 0 0 0 0 0 0 0 127 0" result="hardAlpha"/>
<feOffset dy="-10"/>
<feGaussianBlur stdDeviation="5"/>
<feComposite in2="hardAlpha" operator="arithmetic" k2="-1" k3="1"/>
<feColorMatrix type="matrix" values="0 0 0 0 0.156863 0 0 0 0 0.67451 0 0 0 0 0.25098 0 0 0 0.3 0"/>
<feBlend mode="normal" in2="effect3_innerShadow_1_20" result="effect4_innerShadow_1_20"/>
<feColorMatrix in="SourceAlpha" type="matrix" values="0 0 0 0 0 0 0 0 0 0 0 0 0 0 0 0 0 0 127 0" result="hardAlpha"/>
<feOffset dx="-3" dy="6"/>
<feGaussianBlur stdDeviation="7.5"/>
<feComposite in2="hardAlpha" operator="arithmetic" k2="-1" k3="1"/>
<feColorMatrix type="matrix" values="0 0 0 0 0.0770313 0 0 0 0 0.6375 0 0 0 0 0.178935 0 0 0 0.09 0"/>
<feBlend mode="normal" in2="effect4_innerShadow_1_20" result="effect5_innerShadow_1_20"/>
</filter>
<filter id="filter15_bdii_1_20" x="67.1833" y="222.076" width="127.892" height="119.521" filterUnits="userSpaceOnUse" color-interpolation-filters="sRGB">
<feFlood flood-opacity="0" result="BackgroundImageFix"/>
<feGaussianBlur in="BackgroundImage" stdDeviation="10"/>
<feComposite in2="SourceAlpha" operator="in" result="effect1_backgroundBlur_1_20"/>
<feColorMatrix in="SourceAlpha" type="matrix" values="0 0 0 0 0 0 0 0 0 0 0 0 0 0 0 0 0 0 127 0" result="hardAlpha"/>
<feOffset dx="9" dy="5"/>
<feGaussianBlur stdDeviation="10"/>
<feColorMatrix type="matrix" values="0 0 0 0 0.0690278 0 0 0 0 0.295833 0 0 0 0 0.11166 0 0 0 0.08 0"/>
<feBlend mode="normal" in2="effect1_backgroundBlur_1_20" result="effect2_dropShadow_1_20"/>
<feBlend mode="normal" in="SourceGraphic" in2="effect2_dropShadow_1_20" result="shape"/>
<feColorMatrix in="SourceAlpha" type="matrix" values="0 0 0 0 0 0 0 0 0 0 0 0 0 0 0 0 0 0 127 0" result="hardAlpha"/>
<feOffset/>
<feGaussianBlur stdDeviation="5"/>
<feComposite in2="hardAlpha" operator="arithmetic" k2="-1" k3="1"/>
<feColorMatrix type="matrix" values="0 0 0 0 0.156863 0 0 0 0 0.67451 0 0 0 0 0.25098 0 0 0 0.2 0"/>
<feBlend mode="normal" in2="shape" result="effect3_innerShadow_1_20"/>
<feColorMatrix in="SourceAlpha" type="matrix" values="0 0 0 0 0 0 0 0 0 0 0 0 0 0 0 0 0 0 127 0" result="hardAlpha"/>
<feOffset dx="-3" dy="6"/>
<feGaussianBlur stdDeviation="7.5"/>
<feComposite in2="hardAlpha" operator="arithmetic" k2="-1" k3="1"/>
<feColorMatrix type="matrix" values="0 0 0 0 0.0770313 0 0 0 0 0.6375 0 0 0 0 0.178935 0 0 0 0.09 0"/>
<feBlend mode="normal" in2="effect3_innerShadow_1_20" result="effect4_innerShadow_1_20"/>
</filter>
<filter id="filter16_bdii_1_20" x="180.897" y="133.793" width="99.9166" height="95.9166" filterUnits="userSpaceOnUse" color-interpolation-filters="sRGB">
<feFlood flood-opacity="0" result="BackgroundImageFix"/>
<feGaussianBlur in="BackgroundImage" stdDeviation="10"/>
<feComposite in2="SourceAlpha" operator="in" result="effect1_backgroundBlur_1_20"/>
<feColorMatrix in="SourceAlpha" type="matrix" values="0 0 0 0 0 0 0 0 0 0 0 0 0 0 0 0 0 0 127 0" result="hardAlpha"/>
<feOffset dx="9" dy="5"/>
<feGaussianBlur stdDeviation="10"/>
<feColorMatrix type="matrix" values="0 0 0 0 0.0690278 0 0 0 0 0.295833 0 0 0 0 0.11166 0 0 0 0.08 0"/>
<feBlend mode="normal" in2="effect1_backgroundBlur_1_20" result="effect2_dropShadow_1_20"/>
<feBlend mode="normal" in="SourceGraphic" in2="effect2_dropShadow_1_20" result="shape"/>
<feColorMatrix in="SourceAlpha" type="matrix" values="0 0 0 0 0 0 0 0 0 0 0 0 0 0 0 0 0 0 127 0" result="hardAlpha"/>
<feOffset dx="-10" dy="10"/>
<feGaussianBlur stdDeviation="5"/>
<feComposite in2="hardAlpha" operator="arithmetic" k2="-1" k3="1"/>
<feColorMatrix type="matrix" values="0 0 0 0 1 0 0 0 0 1 0 0 0 0 1 0 0 0 0.15 0"/>
<feBlend mode="normal" in2="shape" result="effect3_innerShadow_1_20"/>
<feColorMatrix in="SourceAlpha" type="matrix" values="0 0 0 0 0 0 0 0 0 0 0 0 0 0 0 0 0 0 127 0" result="hardAlpha"/>
<feOffset dx="3" dy="-6"/>
<feGaussianBlur stdDeviation="4.5"/>
<feComposite in2="hardAlpha" operator="arithmetic" k2="-1" k3="1"/>
<feColorMatrix type="matrix" values="0 0 0 0 0.0199306 0 0 0 0 0.341667 0 0 0 0 0.0521041 0 0 0 0.05 0"/>
<feBlend mode="normal" in2="effect3_innerShadow_1_20" result="effect4_innerShadow_1_20"/>
</filter>
<filter id="filter17_d_1_20" x="346.733" y="116.48" width="740.614" height="134.36" filterUnits="userSpaceOnUse" color-interpolation-filters="sRGB">
<feFlood flood-opacity="0" result="BackgroundImageFix"/>
<feColorMatrix in="SourceAlpha" type="matrix" values="0 0 0 0 0 0 0 0 0 0 0 0 0 0 0 0 0 0 127 0" result="hardAlpha"/>
<feOffset/>
<feGaussianBlur stdDeviation="17"/>
<feComposite in2="hardAlpha" operator="out"/>
<feColorMatrix type="matrix" values="0 0 0 0 0.04375 0 0 0 0 0.375 0 0 0 0 0.267775 0 0 0 0.25 0"/>
<feBlend mode="normal" in2="BackgroundImageFix" result="effect1_dropShadow_1_20"/>
<feBlend mode="normal" in="SourceGraphic" in2="effect1_dropShadow_1_20" result="shape"/>
</filter>
<linearGradient id="paint0_linear_1_20" x1="265.935" y1="138" x2="211.771" y2="381.501" gradientUnits="userSpaceOnUse">
<stop stop-color="#9BE15D"/>
<stop offset="1" stop-color="#00E3AE"/>
</linearGradient>
<linearGradient id="paint1_linear_1_20" x1="324.998" y1="54.8392" x2="318.902" y2="82.2424" gradientUnits="userSpaceOnUse">
<stop stop-color="#9BE15D"/>
<stop offset="1" stop-color="#00E3AE"/>
</linearGradient>
<linearGradient id="paint2_linear_1_20" x1="367.177" y1="242.447" x2="358.571" y2="281.134" gradientUnits="userSpaceOnUse">
<stop stop-color="#9BE15D"/>
<stop offset="1" stop-color="#00E3AE"/>
</linearGradient>
<linearGradient id="paint3_linear_1_20" x1="53.5286" y1="-5.91698e-07" x2="47.0744" y2="29.0151" gradientUnits="userSpaceOnUse">
<stop stop-color="#9BE15D"/>
<stop offset="1" stop-color="#00E3AE"/>
</linearGradient>
<linearGradient id="paint4_linear_1_20" x1="54.803" y1="128.439" x2="51.2174" y2="144.559" gradientUnits="userSpaceOnUse">
<stop stop-color="#9BE15D"/>
<stop offset="1" stop-color="#00E3AE"/>
</linearGradient>
<linearGradient id="paint5_linear_1_20" x1="23.5413" y1="230.902" x2="17.8043" y2="256.693" gradientUnits="userSpaceOnUse">
<stop stop-color="#9BE15D"/>
<stop offset="1" stop-color="#00E3AE"/>
</linearGradient>
<linearGradient id="paint6_linear_1_20" x1="271.532" y1="119" x2="229.952" y2="305.899" gradientUnits="userSpaceOnUse">
<stop stop-color="#9BE15D"/>
<stop offset="1" stop-color="#00E3AE"/>
</linearGradient>
<linearGradient id="paint7_linear_1_20" x1="132.968" y1="273.012" x2="127.106" y2="299.369" gradientUnits="userSpaceOnUse">
<stop stop-color="#9BE15D"/>
<stop offset="1" stop-color="#00E3AE"/>
</linearGradient>
<linearGradient id="paint8_linear_1_20" x1="105.343" y1="267.71" x2="100.28" y2="290.491" gradientUnits="userSpaceOnUse">
<stop stop-color="#9BE15D"/>
<stop offset="1" stop-color="#00E3AE"/>
</linearGradient>
<linearGradient id="paint9_linear_1_20" x1="271.532" y1="119" x2="229.952" y2="305.899" gradientUnits="userSpaceOnUse">
<stop stop-color="#9BE15D"/>
<stop offset="1" stop-color="#00E3AE"/>
</linearGradient>
<linearGradient id="paint10_linear_1_20" x1="224.604" y1="232.522" x2="209.058" y2="335.416" gradientUnits="userSpaceOnUse">
<stop stop-color="#9BE15D"/>
<stop offset="1" stop-color="#00E3AE"/>
</linearGradient>
<linearGradient id="paint11_linear_1_20" x1="178.955" y1="188.839" x2="75.7313" y2="202.013" gradientUnits="userSpaceOnUse">
<stop stop-color="#9BE15D"/>
<stop offset="1" stop-color="#00E3AE"/>
</linearGradient>
<linearGradient id="paint12_linear_1_20" x1="132.968" y1="273.012" x2="127.106" y2="299.369" gradientUnits="userSpaceOnUse">
<stop stop-color="#9BE15D"/>
<stop offset="1" stop-color="#00E3AE"/>
</linearGradient>
<linearGradient id="paint13_linear_1_20" x1="105.343" y1="267.71" x2="100.28" y2="290.491" gradientUnits="userSpaceOnUse">
<stop stop-color="#9BE15D"/>
<stop offset="1" stop-color="#00E3AE"/>
</linearGradient>
<linearGradient id="paint14_linear_1_20" x1="246.193" y1="153.793" x2="233.542" y2="210.666" gradientUnits="userSpaceOnUse">
<stop stop-color="#9BE15D"/>
<stop offset="1" stop-color="#00E3AE"/>
</linearGradient>
</defs>
</svg>
